<svg width="50" height="50" viewBox="0 0 50 50" fill="none" xmlns="http://www.w3.org/2000/svg">
<path d="M25 0C17.7306 0 11.8164 5.91416 11.8164 13.1836C11.8164 20.453 17.7306 26.3672 25 26.3672C32.2694 26.3672 38.1836 20.453 38.1836 13.1836C38.1836 5.91416 32.2694 0 25 0ZM25 23.4375C19.346 23.4375 14.7461 18.8376 14.7461 13.1836C14.7461 7.52959 19.346 2.92969 25 2.92969C30.654 2.92969 35.2539 7.52959 35.2539 13.1836C35.2539 18.8376 30.654 23.4375 25 23.4375Z" fill="#F2F4F7"/>
<path d="M41.4029 34.98C37.7936 31.3151 33.0087 29.2969 27.9297 29.2969H22.0703C16.9914 29.2969 12.2064 31.3151 8.59707 34.98C5.00537 38.6269 3.02734 43.4407 3.02734 48.5352C3.02734 49.3441 3.6832 50 4.49219 50H45.5078C46.3168 50 46.9727 49.3441 46.9727 48.5352C46.9727 43.4407 44.9946 38.6269 41.4029 34.98ZM6.02148 47.0703C6.75537 38.7611 13.6729 32.2266 22.0703 32.2266H27.9297C36.327 32.2266 43.2446 38.7611 43.9785 47.0703H6.02148Z" fill="#F2F4F7"/>
</svg>
