<svg width="50" height="50" viewBox="0 0 50 50" fill="none" xmlns="http://www.w3.org/2000/svg">
<path fill-rule="evenodd" clip-rule="evenodd" d="M0 10.2894C0 7.04312 2.63152 4.41177 5.87816 4.41177H19.8493C21.19 4.41177 22.6639 5.26396 23.3274 6.42506L24.8145 9.02749C24.953 9.26983 25.4517 9.55883 25.7289 9.55883H44.1127C47.362 9.55883 50 12.1939 50 15.4377V39.6993C50 42.9494 47.3668 45.5882 44.1234 45.5882H5.87661C2.63262 45.5882 0 42.954 0 39.7126V10.2894ZM2.94118 10.2894V39.7126C2.94118 41.3301 4.25738 42.6471 5.87661 42.6471H44.1234C45.741 42.6471 47.0588 41.3265 47.0588 39.6993V15.4377C47.0588 13.819 45.7384 12.5 44.1127 12.5H25.7289C24.3969 12.5 22.9233 11.646 22.2608 10.4867L20.7737 7.88429C20.6348 7.64117 20.1363 7.35295 19.8493 7.35295H5.87816C4.25584 7.35295 2.94118 8.66753 2.94118 10.2894ZM23.5294 25C23.5294 24.1878 24.1878 23.5294 25 23.5294C25.8122 23.5294 26.4706 24.1878 26.4706 25V33.8235C26.4706 34.6357 25.8122 35.2941 25 35.2941C24.1878 35.2941 23.5294 34.6357 23.5294 33.8235V25ZM16.9118 29.4118C16.9118 28.5996 17.5702 27.9412 18.3824 27.9412C19.1945 27.9412 19.8529 28.5996 19.8529 29.4118V33.8235C19.8529 34.6357 19.1945 35.2941 18.3824 35.2941C17.5702 35.2941 16.9118 34.6357 16.9118 33.8235V29.4118ZM33.0882 33.8235C33.0882 34.6357 32.4298 35.2941 31.6176 35.2941C30.8055 35.2941 30.1471 34.6357 30.1471 33.8235V20.5882C30.1471 19.7761 30.8055 19.1177 31.6176 19.1177C32.4298 19.1177 33.0882 19.7761 33.0882 20.5882V33.8235Z" fill="currentColor"/>
</svg>
