<svg width="50" height="50" viewBox="0 0 50 50" fill="none" xmlns="http://www.w3.org/2000/svg">
<path d="M20.4561 22.95C20.4561 22.6392 20.3326 22.3411 20.1128 22.1214C19.8931 21.9016 19.595 21.7781 19.2842 21.7781C18.9734 21.7781 18.6753 21.9016 18.4555 22.1214C18.2358 22.3411 18.1123 22.6392 18.1123 22.95C18.1893 24.1245 18.6745 25.2351 19.4841 26.0894C20.2936 26.9438 21.3765 27.4881 22.5451 27.6281V28.1484C22.5451 28.4592 22.6686 28.7573 22.8884 28.9771C23.1081 29.1969 23.4062 29.3203 23.717 29.3203C24.0278 29.3203 24.3259 29.1969 24.5456 28.9771C24.7654 28.7573 24.8889 28.4592 24.8889 28.1484V27.6281C26.0574 27.4878 27.1401 26.9434 27.9496 26.0891C28.7591 25.2348 29.2444 24.1244 29.3217 22.95C29.2444 21.7756 28.7591 20.6652 27.9496 19.8109C27.1401 18.9566 26.0574 18.4122 24.8889 18.2719V13.4516C25.4323 13.56 25.9274 13.8381 26.3028 14.2458C26.6782 14.6535 26.9146 15.1698 26.9779 15.7203C26.9779 16.0311 27.1014 16.3292 27.3212 16.549C27.5409 16.7687 27.839 16.8922 28.1498 16.8922C28.4606 16.8922 28.7587 16.7687 28.9784 16.549C29.1982 16.3292 29.3217 16.0311 29.3217 15.7203C29.2448 14.5457 28.7596 13.4349 27.95 12.5803C27.1405 11.7257 26.0576 11.181 24.8889 11.0406V10.5203C24.8889 10.2095 24.7654 9.91145 24.5456 9.69168C24.3259 9.47192 24.0278 9.34845 23.717 9.34845C23.4062 9.34845 23.1081 9.47192 22.8884 9.69168C22.6686 9.91145 22.5451 10.2095 22.5451 10.5203V11.0406C21.375 11.181 20.291 11.7267 19.4812 12.583C18.6715 13.4392 18.1872 14.552 18.1123 15.7281C18.1893 16.9026 18.6745 18.0132 19.4841 18.8675C20.2936 19.7219 21.3765 20.2662 22.5451 20.4063V25.2313C21.9972 25.1277 21.4976 24.8494 21.121 24.4382C20.7444 24.027 20.5112 23.5049 20.4561 22.95ZM26.9779 22.95C26.9145 23.5004 26.6781 24.0164 26.3026 24.4238C25.9272 24.8313 25.4322 25.109 24.8889 25.2172V20.686C25.4318 20.7939 25.9264 21.0713 26.3018 21.4781C26.6772 21.8849 26.9139 22.4002 26.9779 22.95ZM20.4561 15.7203C20.5127 15.1667 20.7466 14.6461 21.1231 14.2362C21.4995 13.8262 21.9983 13.5488 22.5451 13.4453V17.9938C21.9985 17.8903 21.4999 17.6132 21.1235 17.2036C20.7471 16.7939 20.513 16.2737 20.4561 15.7203Z" fill="currentColor"/>
<path d="M5.97656 35.6891H23.8672C23.7353 36.3244 23.6683 36.9715 23.6672 37.6203C23.6659 39.6946 24.3525 41.7106 25.6196 43.3529C26.8866 44.9952 28.6625 46.1709 30.6692 46.6959C32.6759 47.2209 34.8 47.0656 36.709 46.2543C38.618 45.4431 40.204 44.0216 41.2188 42.2125C42.9567 42.0272 44.6082 41.3597 45.9869 40.2854C47.3655 39.2111 48.4164 37.7728 49.0209 36.1328C49.6254 34.4929 49.7595 32.7166 49.4079 31.0045C49.0563 29.2925 48.2331 27.7128 47.0312 26.4438V8.56095C47.0271 7.07942 46.4356 5.66 45.3864 4.61401C44.3371 3.56802 42.9159 2.98084 41.4344 2.98126H5.97656C4.49739 2.98292 3.0793 3.57136 2.03351 4.61744C0.98772 5.66352 0.399678 7.08178 0.398438 8.56095V30.1094C0.399678 31.5886 0.98772 33.0068 2.03351 34.0529C3.0793 35.099 4.49739 35.6874 5.97656 35.6891ZM33.0672 44.675C31.1967 44.6729 29.4033 43.9291 28.0805 42.6066C26.7577 41.284 26.0134 39.4909 26.0109 37.6203C26.007 36.1082 26.494 34.6356 27.3987 33.424C28.3035 32.2124 29.5771 31.3272 31.0281 30.9016C30.7638 32.1272 30.748 33.3934 30.9816 34.6252C31.2153 35.857 31.6936 37.0295 32.3884 38.0731C33.0832 39.1168 33.9802 40.0105 35.0265 40.7014C36.0728 41.3923 37.247 41.8663 38.4797 42.0953C37.823 42.8972 36.9974 43.5442 36.0618 43.9901C35.1262 44.4361 34.1036 44.6699 33.0672 44.675ZM40.2094 39.925C38.8153 39.925 37.4526 39.5116 36.2935 38.7371C35.1344 37.9626 34.2309 36.8618 33.6975 35.5739C33.164 34.286 33.0244 32.8688 33.2964 31.5015C33.5683 30.1342 34.2396 28.8783 35.2254 27.8926C36.2111 26.9068 37.467 26.2355 38.8343 25.9636C40.2016 25.6916 41.6188 25.8312 42.9067 26.3647C44.1946 26.8981 45.2954 27.8016 46.0699 28.9607C46.8444 30.1198 47.2578 31.4825 47.2578 32.8766C47.2553 34.7452 46.5119 36.5365 45.1906 37.8578C43.8693 39.1791 42.078 39.9225 40.2094 39.925ZM2.74219 8.56095C2.74301 7.70325 3.08399 6.88089 3.69033 6.27426C4.29667 5.66763 5.11886 5.32625 5.97656 5.32501H41.4453C42.3036 5.32666 43.1264 5.66792 43.7339 6.27424C44.3414 6.88056 44.6842 7.70266 44.6875 8.56095V24.625C42.5147 23.4411 39.962 23.1642 37.5859 23.8547C35.2098 24.5452 33.2031 26.147 32.0031 28.311C30.4614 28.476 28.9851 29.0227 27.7078 29.9017C26.4305 30.7807 25.3924 31.9643 24.6875 33.3453H5.97656C5.11886 33.3441 4.29667 33.0027 3.69033 32.3961C3.08399 31.7894 2.74301 30.9671 2.74219 30.1094V8.56095Z" fill="currentColor"/>
<path d="M10.4262 21.5906C10.8724 21.5906 11.3086 21.4583 11.6797 21.2104C12.0507 20.9625 12.3399 20.6101 12.5107 20.1978C12.6814 19.7855 12.7261 19.3319 12.6391 18.8942C12.552 18.4565 12.3371 18.0545 12.0216 17.739C11.706 17.4234 11.304 17.2085 10.8663 17.1215C10.4287 17.0344 9.97502 17.0791 9.56274 17.2499C9.15047 17.4206 8.79809 17.7098 8.55017 18.0809C8.30225 18.4519 8.16992 18.8881 8.16992 19.3344C8.16992 19.9328 8.40763 20.5067 8.83076 20.9298C9.25389 21.3529 9.82778 21.5906 10.4262 21.5906Z" fill="currentColor"/>
<path d="M36.9516 21.5906C37.3978 21.5906 37.834 21.4583 38.2051 21.2104C38.5761 20.9625 38.8653 20.6101 39.0361 20.1978C39.2068 19.7855 39.2515 19.3319 39.1645 18.8942C39.0774 18.4565 38.8625 18.0545 38.547 17.739C38.2314 17.4234 37.8294 17.2085 37.3917 17.1215C36.9541 17.0344 36.5004 17.0791 36.0881 17.2499C35.6759 17.4206 35.3235 17.7098 35.0756 18.0809C34.8276 18.4519 34.6953 18.8881 34.6953 19.3344C34.6953 19.9328 34.933 20.5067 35.3562 20.9298C35.7793 21.3529 36.3532 21.5906 36.9516 21.5906Z" fill="currentColor"/>
</svg>
