<svg width="40" height="40" viewBox="0 0 40 40" fill="none" xmlns="http://www.w3.org/2000/svg">
<g clip-path="url(#clip0_246_101)">
<path d="M15.4166 13.3334H2.91656C1.30829 13.3334 0 12.0251 0 10.4166V2.91656C0 1.30829 1.30829 0 2.91656 0H15.4166C17.0251 0 18.3334 1.30829 18.3334 2.91656V10.4166C18.3334 12.0251 17.0251 13.3334 15.4166 13.3334ZM2.91656 2.5C2.68677 2.5 2.5 2.68677 2.5 2.91656V10.4166C2.5 10.6467 2.68677 10.8334 2.91656 10.8334H15.4166C15.6467 10.8334 15.8334 10.6467 15.8334 10.4166V2.91656C15.8334 2.68677 15.6467 2.5 15.4166 2.5H2.91656Z" fill="currentColor"/>
<path d="M15.4166 40H2.91656C1.30829 40 0 38.6917 0 37.0834V19.5834C0 17.9749 1.30829 16.6666 2.91656 16.6666H15.4166C17.0251 16.6666 18.3334 17.9749 18.3334 19.5834V37.0834C18.3334 38.6917 17.0251 40 15.4166 40ZM2.91656 19.1666C2.68677 19.1666 2.5 19.3533 2.5 19.5834V37.0834C2.5 37.3132 2.68677 37.5 2.91656 37.5H15.4166C15.6467 37.5 15.8334 37.3132 15.8334 37.0834V19.5834C15.8334 19.3533 15.6467 19.1666 15.4166 19.1666H2.91656Z" fill="currentColor"/>
<path d="M37.0839 40H24.5839C22.9753 40 21.667 38.6917 21.667 37.0834V29.5834C21.667 27.9749 22.9753 26.6666 24.5839 26.6666H37.0839C38.6921 26.6666 40.0004 27.9749 40.0004 29.5834V37.0834C40.0004 38.6917 38.6921 40 37.0839 40ZM24.5839 29.1666C24.3538 29.1666 24.167 29.3533 24.167 29.5834V37.0834C24.167 37.3132 24.3538 37.5 24.5839 37.5H37.0839C37.3137 37.5 37.5004 37.3132 37.5004 37.0834V29.5834C37.5004 29.3533 37.3137 29.1666 37.0839 29.1666H24.5839Z" fill="currentColor"/>
<path d="M37.0839 23.3334H24.5839C22.9753 23.3334 21.667 22.0251 21.667 20.4166V2.91656C21.667 1.30829 22.9753 0 24.5839 0H37.0839C38.6921 0 40.0004 1.30829 40.0004 2.91656V20.4166C40.0004 22.0251 38.6921 23.3334 37.0839 23.3334ZM24.5839 2.5C24.3538 2.5 24.167 2.68677 24.167 2.91656V20.4166C24.167 20.6467 24.3538 20.8334 24.5839 20.8334H37.0839C37.3137 20.8334 37.5004 20.6467 37.5004 20.4166V2.91656C37.5004 2.68677 37.3137 2.5 37.0839 2.5H24.5839Z" fill="currentColor"/>
</g>
<defs>
<clipPath id="clip0_246_101">
<rect width="40" height="40" fill="white"/>
</clipPath>
</defs>
</svg>
