<svg width="50" height="50" viewBox="0 0 50 50" fill="none" xmlns="http://www.w3.org/2000/svg">
<path d="M28.1253 50H21.8753C19.291 50 17.1878 47.8969 17.1878 45.3125V42.05C16.105 41.5547 15.0816 40.9625 14.1316 40.2812L11.316 41.9141C10.2472 42.5438 8.98627 42.7156 7.77064 42.3953C6.55189 42.0719 5.53627 41.2922 4.90971 40.2L1.78783 34.7969C0.503456 32.5547 1.27221 29.6859 3.49877 28.3984L6.32846 26.7578C6.27689 26.1781 6.25033 25.5906 6.25033 25C6.25033 24.4094 6.27689 23.8219 6.32846 23.2422L3.49877 21.6016C1.27377 20.3141 0.503455 17.4453 1.78471 15.2078L4.91283 9.79688C5.53627 8.70938 6.55189 7.92969 7.77064 7.60625C8.98158 7.2875 10.2456 7.45469 11.3238 8.09375L14.1316 9.71875C15.0816 9.0375 16.105 8.44531 17.1878 7.95V4.6875C17.1878 2.10312 19.291 0 21.8753 0H28.1253C30.7097 0 32.8128 2.10312 32.8128 4.6875V7.95C33.8941 8.44531 34.9175 9.03594 35.8691 9.71875L38.6847 8.08594C39.7566 7.45625 41.0191 7.28438 42.2316 7.60469C43.4503 7.92813 44.466 8.70781 45.0925 9.8L48.2144 15.2031C49.4972 17.4453 48.7285 20.3141 46.5019 21.6016L43.6722 23.2422C43.7238 23.8219 43.7503 24.4094 43.7503 25C43.7503 25.5906 43.7238 26.1781 43.6722 26.7578L46.5035 28.3984C48.7285 29.6859 49.4972 32.5547 48.2175 34.7922L45.0894 40.2047C44.466 41.2922 43.4503 42.0719 42.2316 42.3953C41.0206 42.7156 39.7566 42.5453 38.6769 41.9078L35.8706 40.2812C34.9191 40.9641 33.8956 41.5531 32.8144 42.05V45.3125C32.8128 47.8969 30.7097 50 28.1253 50ZM14.2503 36.8438C14.6019 36.8438 14.9519 36.9625 15.2363 37.1953C16.4441 38.1781 17.8175 38.975 19.3175 39.5609C19.9191 39.7953 20.3128 40.3719 20.3128 41.0156V45.3125C20.3128 46.175 21.0144 46.875 21.8753 46.875H28.1253C28.9878 46.875 29.6878 46.175 29.6878 45.3125V41.0156C29.6878 40.3719 30.0831 39.7953 30.6816 39.5594C32.1816 38.9734 33.555 38.1781 34.7644 37.1938C35.2691 36.7844 35.9722 36.7313 36.5347 37.0531L40.2535 39.2094C40.6144 39.4234 41.0316 39.4766 41.43 39.3719C41.8363 39.2656 42.1722 39.0063 42.3785 38.6437L45.5066 33.2313C45.9316 32.4875 45.6769 31.5297 44.9363 31.1L41.216 28.9438C40.6628 28.6219 40.3613 27.9969 40.455 27.3625C40.5675 26.6 40.6253 25.8062 40.6253 25C40.6253 24.1938 40.5675 23.4 40.455 22.6344C40.3613 22.0016 40.6628 21.375 41.216 21.0531L44.9347 18.8969C45.6785 18.4672 45.9331 17.5078 45.5035 16.7609L42.3816 11.3594C42.1706 10.9937 41.8347 10.7344 41.43 10.6266C41.0316 10.5203 40.616 10.575 40.2628 10.7844L36.5347 12.9469C35.9738 13.2688 35.2691 13.2172 34.7644 12.8063C33.555 11.8219 32.1816 11.0266 30.6816 10.4406C30.0831 10.2047 29.6878 9.62813 29.6878 8.98438V4.6875C29.6878 3.825 28.9878 3.125 28.1253 3.125H21.8753C21.0144 3.125 20.3128 3.825 20.3128 4.6875V8.98438C20.3128 9.62813 19.9191 10.2047 19.3191 10.4406C17.8191 11.0266 16.4456 11.8234 15.2378 12.8063C14.7331 13.2156 14.0285 13.2703 13.4675 12.9469L9.74877 10.7906C9.38471 10.5766 8.96908 10.5172 8.57064 10.6266C8.16596 10.7328 7.82846 10.9922 7.62064 11.3547L4.49252 16.7656C4.06752 17.5094 4.32221 18.4672 5.06439 18.8969L8.78314 21.0531C9.33627 21.375 9.63939 22 9.54564 22.6344C9.43314 23.4 9.37533 24.1938 9.37533 25C9.37533 25.8062 9.43314 26.6 9.54564 27.3656C9.63939 27.9984 9.33783 28.625 8.78314 28.9469L5.06439 31.1031C4.32064 31.5328 4.06596 32.4922 4.49564 33.2391L7.61752 38.6422C7.82846 39.0078 8.16596 39.2672 8.57064 39.375C8.97221 39.4828 9.38627 39.425 9.73939 39.2172L13.4675 37.0547C13.7097 36.9141 13.9816 36.8438 14.2503 36.8438Z" fill="#F2F4F7"/>
<path d="M25 35.9375C18.9688 35.9375 14.0625 31.0297 14.0625 25C14.0625 18.9703 18.9688 14.0625 25 14.0625C31.0297 14.0625 35.9375 18.9703 35.9375 25C35.9375 31.0297 31.0297 35.9375 25 35.9375ZM25 17.1875C20.6922 17.1875 17.1875 20.6922 17.1875 25C17.1875 29.3078 20.6922 32.8125 25 32.8125C29.3078 32.8125 32.8125 29.3078 32.8125 25C32.8125 20.6922 29.3078 17.1875 25 17.1875Z" fill="#F2F4F7"/>
</svg>
